<svg width="128" height="128" viewBox="0 0 128 128" fill="none" xmlns="http://www.w3.org/2000/svg">
<path d="M112.93 51.41C111.045 49.44 109.095 47.41 108.36 45.625C107.68 43.99 107.64 41.28 107.6 38.655C107.525 33.775 107.445 28.245 103.6 24.4C99.755 20.555 94.225 20.475 89.345 20.4C86.72 20.36 84.01 20.32 82.375 19.64C80.595 18.905 78.56 16.955 76.59 15.07C73.14 11.755 69.22 8 64 8C58.78 8 54.865 11.755 51.41 15.07C49.44 16.955 47.41 18.905 45.625 19.64C44 20.32 41.28 20.36 38.655 20.4C33.775 20.475 28.245 20.555 24.4 24.4C20.555 28.245 20.5 33.775 20.4 38.655C20.36 41.28 20.32 43.99 19.64 45.625C18.905 47.405 16.955 49.44 15.07 51.41C11.755 54.86 8 58.78 8 64C8 69.22 11.755 73.135 15.07 76.59C16.955 78.56 18.905 80.59 19.64 82.375C20.32 84.01 20.36 86.72 20.4 89.345C20.475 94.225 20.555 99.755 24.4 103.6C28.245 107.445 33.775 107.525 38.655 107.6C41.28 107.64 43.99 107.68 45.625 108.36C47.405 109.095 49.44 111.045 51.41 112.93C54.86 116.245 58.78 120 64 120C69.22 120 73.135 116.245 76.59 112.93C78.56 111.045 80.59 109.095 82.375 108.36C84.01 107.68 86.72 107.64 89.345 107.6C94.225 107.525 99.755 107.445 103.6 103.6C107.445 99.755 107.525 94.225 107.6 89.345C107.64 86.72 107.68 84.01 108.36 82.375C109.095 80.595 111.045 78.56 112.93 76.59C116.245 73.14 120 69.22 120 64C120 58.78 116.245 54.865 112.93 51.41ZM107.155 71.055C104.76 73.555 102.28 76.14 100.965 79.315C99.705 82.365 99.65 85.85 99.6 89.225C99.55 92.725 99.495 96.39 97.94 97.94C96.385 99.49 92.745 99.55 89.225 99.6C85.85 99.65 82.365 99.705 79.315 100.965C76.14 102.28 73.555 104.76 71.055 107.155C68.555 109.55 66 112 64 112C62 112 59.425 109.54 56.945 107.155C54.465 104.77 51.86 102.28 48.685 100.965C45.635 99.705 42.15 99.65 38.775 99.6C35.275 99.55 31.61 99.495 30.06 97.94C28.51 96.385 28.45 92.745 28.4 89.225C28.35 85.85 28.295 82.365 27.035 79.315C25.72 76.14 23.24 73.555 20.845 71.055C18.45 68.555 16 66 16 64C16 62 18.46 59.425 20.845 56.945C23.23 54.465 25.72 51.86 27.035 48.685C28.295 45.635 28.35 42.15 28.4 38.775C28.45 35.275 28.505 31.61 30.06 30.06C31.615 28.51 35.255 28.45 38.775 28.4C42.15 28.35 45.635 28.295 48.685 27.035C51.86 25.72 54.445 23.24 56.945 20.845C59.445 18.45 62 16 64 16C66 16 68.575 18.46 71.055 20.845C73.535 23.23 76.14 25.72 79.315 27.035C82.365 28.295 85.85 28.35 89.225 28.4C92.725 28.45 96.39 28.505 97.94 30.06C99.49 31.615 99.55 35.255 99.6 38.775C99.65 42.15 99.705 45.635 100.965 48.685C102.28 51.86 104.76 54.445 107.155 56.945C109.55 59.445 112 62 112 64C112 66 109.54 68.575 107.155 71.055ZM86.83 49.17C87.2019 49.5415 87.4969 49.9826 87.6982 50.4682C87.8995 50.9538 88.0031 51.4743 88.0031 52C88.0031 52.5257 87.8995 53.0462 87.6982 53.5318C87.4969 54.0174 87.2019 54.4585 86.83 54.83L58.83 82.83C58.4585 83.2019 58.0174 83.4969 57.5318 83.6982C57.0462 83.8995 56.5257 84.0031 56 84.0031C55.4743 84.0031 54.9538 83.8995 54.4682 83.6982C53.9826 83.4969 53.5415 83.2019 53.17 82.83L41.17 70.83C40.4194 70.0794 39.9978 69.0615 39.9978 68C39.9978 66.9385 40.4194 65.9206 41.17 65.17C41.9206 64.4194 42.9385 63.9978 44 63.9978C45.0615 63.9978 46.0794 64.4194 46.83 65.17L56 74.345L81.17 49.17C81.5415 48.7981 81.9826 48.5031 82.4682 48.3018C82.9538 48.1005 83.4743 47.9969 84 47.9969C84.5257 47.9969 85.0462 48.1005 85.5318 48.3018C86.0174 48.5031 86.4585 48.7981 86.83 49.17Z" fill="white"/>
</svg>
